# xmcd
#
# Track frame offsets:
#	150
#	12151
#	25361
#	41505
#	54375
#	70053
#	86402
#	102282
#	117242
#	132526
#	149013
#	157937
#	173126
#	188169
#	203957
#	218891
#	233423
#	249914
#	263938
#	278405
#
# Disc length: 3924 seconds
#
# Revision: 1
# Processed by: cddbd v1.5.2PL0 Copyright (c) Steve Scherf et al.
# Submitted via: audiograbber 1.83.01
#
DISCID=130f5214
DTITLE=Diversen - Holland Party 6
DYEAR=1900
DGENRE=
TTITLE0=Nick and Simon - Rosanne
TTITLE1=Helemaal Hollands - De arme muzikant
TTITLE2=Gebroeders Ko - Zonnebril
TTITLE3=Rob van Daal - Kon ik maar even
TTITLE4=Andre Hazes - Ik meen 't
TTITLE5=Frans Duyts - Je denkt maar dat je alles mag van mij
TTITLE6=Grad Damen - Mag je dochter mee op stap
TTITLE7=Mick Harren - Zo verliefd op jou
TTITLE8=BZN - El Cordobes
TTITLE9=Arne Jansen - Altijd altijd
TTITLE10=Mieke - Wals je met me mee door de nacht
TTITLE11=Drukwerk - Je loog tegen mij
TTITLE12=John Spencer - Oh Monah
TTITLE13=Dennis Jones - De zon die zal schijnen
TTITLE14=Rapsodie's - Kleine Merel
TTITLE15=Frank and Mirella - Verliefd, verloofd, getrouwd
TTITLE16=Eric Dikeb - Dansen op je bruiloft
TTITLE17=Rene Schuurmans - Kom bij me terug
TTITLE18=Nico Landers - Liefde in de nacht
TTITLE19=DJ' S Stayfan and Ger - Wiegeliedje
EXTD=
EXTT0=
EXTT1=
EXTT2=
EXTT3=
EXTT4=
EXTT5=
EXTT6=
EXTT7=
EXTT8=
EXTT9=
EXTT10=
EXTT11=
EXTT12=
EXTT13=
EXTT14=
EXTT15=
EXTT16=
EXTT17=
EXTT18=
EXTT19=
PLAYORDER=
